<?xml version="1.0" encoding="utf-8"?>
<!-- Generator: Adobe Illustrator 23.0.4, SVG Export Plug-In . SVG Version: 6.00 Build 0)  -->
<svg version="1.1" id="Layer_1" xmlns="http://www.w3.org/2000/svg" xmlns:xlink="http://www.w3.org/1999/xlink" x="0px" y="0px"
	 viewBox="0 0 1920 1080" style="enable-background:new 0 0 1920 1080;" xml:space="preserve">
<style type="text/css">
	.st0{fill:#FFFFFF;stroke:#FFFFFF;stroke-miterlimit:10;}
	.st1{fill:none;stroke:#FFFFFF;stroke-width:5;stroke-miterlimit:10;}
</style>
<g>
	<path class="st0" d="M739.5,491.8h-8.4v-44.2H716v-7.2h38.6v7.2h-15.1V491.8z"/>
	<path class="st0" d="M803,491.8h-8.4v-23.2h-23.7v23.2h-8.4v-51.4h8.4v21h23.7v-21h8.4V491.8z"/>
	<path class="st0" d="M845.6,491.8h-29.1v-51.4h29.1v7.1H825v14h19.4v7H825v16.1h20.7V491.8z"/>
	<path class="st0" d="M660,537.6c0,8.5-2.4,15-7.1,19.5s-11.5,6.7-20.4,6.7h-14.4v-51.4h15.9c8.2,0,14.5,2.2,19.1,6.6
		C657.7,523.4,660,529.6,660,537.6z M651.1,537.9c0-12.3-5.8-18.5-17.3-18.5h-7.3v37.3h6C644.9,556.7,651.1,550.4,651.1,537.9z"/>
	<path class="st0" d="M702.9,563.8l-5.1-14.3h-19.7l-5,14.3h-8.9l19.2-51.6h9.1l19.2,51.6H702.9z M695.6,542.3l-4.8-14
		c-0.3-0.9-0.8-2.4-1.5-4.4s-1-3.5-1.3-4.4c-0.6,2.9-1.6,6-2.8,9.5l-4.6,13.4L695.6,542.3L695.6,542.3z"/>
	<path class="st0" d="M761.4,563.8h-10.3l-25.3-41h-0.3l0.2,2.3c0.3,4.4,0.5,8.3,0.5,12v26.7h-7.6v-51.4h10.2l25.2,40.8h0.2
		c0-0.5-0.1-2.5-0.3-5.9s-0.2-6-0.2-7.9v-26.9h7.7L761.4,563.8L761.4,563.8z"/>
	<path class="st0" d="M796.9,518.9c-4.8,0-8.6,1.7-11.4,5.1c-2.8,3.4-4.2,8.1-4.2,14.2c0,6.3,1.3,11.1,4,14.3
		c2.7,3.2,6.5,4.8,11.5,4.8c2.2,0,4.3-0.2,6.3-0.7s4.2-1,6.4-1.7v7.2c-4,1.5-8.6,2.3-13.7,2.3c-7.5,0-13.3-2.3-17.3-6.8
		s-6-11.1-6-19.6c0-5.3,1-10,2.9-14s4.8-7.1,8.5-9.2s8-3.2,13-3.2c5.2,0,10.1,1.1,14.5,3.3l-3,7c-1.7-0.8-3.6-1.5-5.5-2.2
		S799,518.9,796.9,518.9z"/>
	<path class="st0" d="M849.7,563.8h-29.1v-51.4h29.1v7.1H829v14h19.4v7H829v16.1h20.7V563.8z"/>
	<path class="st0" d="M869.2,543.3v20.5h-8.4v-51.4h14.5c6.6,0,11.5,1.2,14.7,3.7s4.8,6.2,4.8,11.2c0,6.4-3.3,11-10,13.7l14.5,22.8
		h-9.6l-12.3-20.5L869.2,543.3L869.2,543.3z M869.2,536.3h5.8c3.9,0,6.8-0.7,8.5-2.2s2.6-3.6,2.6-6.5c0-2.9-1-5-2.8-6.3
		s-4.8-1.9-8.6-1.9h-5.5L869.2,536.3L869.2,536.3z"/>
	<path class="st0" d="M936.5,549.8c0,4.6-1.7,8.2-5,10.8s-7.9,3.9-13.7,3.9s-10.6-0.9-14.3-2.7v-8c2.3,1.1,4.8,2,7.5,2.6
		s5.1,1,7.4,1c3.3,0,5.8-0.6,7.4-1.9s2.4-3,2.4-5.1c0-1.9-0.7-3.5-2.2-4.9s-4.5-2.9-9-4.8c-4.7-1.9-8-4.1-9.9-6.5s-2.9-5.4-2.9-8.8
		c0-4.3,1.5-7.7,4.6-10.1s7.1-3.7,12.3-3.7c4.9,0,9.8,1.1,14.7,3.2l-2.7,6.9c-4.6-1.9-8.7-2.9-12.2-2.9c-2.7,0-4.8,0.6-6.2,1.8
		s-2.1,2.8-2.1,4.7c0,1.3,0.3,2.5,0.8,3.4s1.5,1.8,2.8,2.7s3.6,2,7,3.3c3.8,1.6,6.5,3,8.3,4.4s3,2.9,3.9,4.6
		S936.5,547.5,936.5,549.8z"/>
	<path class="st0" d="M952.2,512.4l0.5,0.8c-1.2,4.9-3.3,10.5-6.2,16.8h-6c1.6-6.8,2.8-12.6,3.5-17.6L952.2,512.4L952.2,512.4z"/>
	<path class="st0" d="M752.3,635.8h-8.4v-23.2h-23.7v23.2h-8.4v-51.4h8.4v21h23.7v-21h8.4V635.8z"/>
	<path class="st0" d="M806.1,584.4v33.3c0,3.8-0.8,7.1-2.4,10s-4,5-7.1,6.6c-3.1,1.5-6.8,2.3-11.1,2.3c-6.4,0-11.3-1.7-14.9-5.1
		c-3.5-3.4-5.3-8-5.3-13.9v-33.1h8.4v32.5c0,4.2,1,7.4,3,9.4s5,3,9.1,3c7.9,0,11.9-4.2,11.9-12.5v-32.5L806.1,584.4L806.1,584.4z"/>
	<path class="st0" d="M819.2,584.4h15.3c7.1,0,12.2,1,15.3,3.1s4.7,5.3,4.7,9.8c0,3-0.8,5.5-2.3,7.5s-3.8,3.2-6.7,3.8v0.3
		c3.6,0.7,6.3,2,8,4s2.5,4.7,2.5,8.1c0,4.6-1.6,8.2-4.8,10.8s-7.7,3.9-13.5,3.9h-18.6L819.2,584.4L819.2,584.4z M827.6,605.6h8.1
		c3.5,0,6.1-0.6,7.7-1.7s2.4-3,2.4-5.7c0-2.4-0.9-4.2-2.6-5.2s-4.5-1.6-8.3-1.6h-7.3L827.6,605.6L827.6,605.6z M827.6,612.5v16.3
		h8.9c3.5,0,6.2-0.7,8-2c1.8-1.3,2.7-3.5,2.7-6.4c0-2.7-0.9-4.7-2.7-5.9s-4.6-1.9-8.3-1.9L827.6,612.5L827.6,612.5z"/>
</g>
<circle class="st1" cx="782.5" cy="539.5" r="202"/>
<circle class="st1" cx="441.5" cy="337.5" r="90"/>
<circle class="st1" cx="580.5" cy="127.5" r="54"/>
<circle class="st1" cx="728.5" cy="245.5" r="27"/>
<circle class="st1" cx="937.5" cy="842.5" r="54"/>
<circle class="st1" cx="407.5" cy="864.5" r="54"/>
<circle class="st1" cx="1131" cy="703" r="82.5"/>
<circle class="st1" cx="1138" cy="238" r="82.5"/>
<path class="st1" d="M448.3,829.2c189.2-148.7,189.2-148.7,189.2-148.7"/>
<line class="st1" x1="516" y1="387" x2="608" y2="437"/>
<line class="st1" x1="601.5" y1="175.5" x2="699.8" y2="355.1"/>
<line class="st1" x1="1087.3" y1="303.1" x2="957" y2="437.1"/>
<line class="st1" x1="1048.5" y1="680.5" x2="957" y2="641"/>
<line class="st1" x1="912.5" y1="794.7" x2="868.4" y2="722.3"/>
<line class="st1" x1="735.4" y1="271" x2="753.5" y2="337.5"/>
</svg>
